<svg width="18" height="18" viewBox="0 0 18 18" fill="none" xmlns="http://www.w3.org/2000/svg">
<path d="M9 17C13.4183 17 17 13.4183 17 9C17 4.58172 13.4183 1 9 1C4.58172 1 1 4.58172 1 9C1 13.4183 4.58172 17 9 17Z" stroke="black" stroke-miterlimit="10" stroke-linecap="round" stroke-linejoin="round"/>
<path fill-rule="evenodd" clip-rule="evenodd" d="M12.4207 6.34319C12.5658 6.49826 12.5658 6.74966 12.4207 6.90472L8.21019 11.4047C8.0651 11.5598 7.82987 11.5598 7.68478 11.4047L5.57952 9.15472C5.43443 8.99966 5.43443 8.74826 5.57952 8.59319C5.7246 8.43813 5.95984 8.43813 6.10492 8.59319L7.94748 10.5624L11.8953 6.34319C12.0404 6.18813 12.2756 6.18813 12.4207 6.34319Z" fill="black"/>
</svg>
