<svg width="16" height="16" viewBox="0 0 16 16" fill="none" xmlns="http://www.w3.org/2000/svg">
<path fill-rule="evenodd" clip-rule="evenodd" d="M8 15.3C12.0317 15.3 15.3 12.0317 15.3 8C15.3 3.96832 12.0317 0.7 8 0.7C3.96832 0.7 0.7 3.96832 0.7 8C0.7 12.0317 3.96832 15.3 8 15.3ZM8 16C12.4183 16 16 12.4183 16 8C16 3.58172 12.4183 0 8 0C3.58172 0 0 3.58172 0 8C0 12.4183 3.58172 16 8 16Z" fill="white"/>
<path d="M7.51903 9.763C7.5155 9.63422 7.51374 9.53764 7.51374 9.47326C7.51374 9.09409 7.5666 8.7668 7.6723 8.49137C7.74982 8.2839 7.87491 8.07464 8.04757 7.8636C8.17442 7.70979 8.40169 7.48622 8.72939 7.19291C9.06061 6.89602 9.27555 6.65993 9.37421 6.48466C9.47287 6.30939 9.5222 6.11802 9.5222 5.91055C9.5222 5.53496 9.37773 5.20588 9.08879 4.92329C8.79986 4.63713 8.44574 4.49405 8.02643 4.49405C7.62121 4.49405 7.28295 4.62282 7.01163 4.88037C6.74031 5.13791 6.56237 5.54033 6.4778 6.08761L5.5 5.96957C5.58809 5.23628 5.84884 4.67469 6.28224 4.28479C6.71917 3.8949 7.29528 3.69995 8.01057 3.69995C8.76815 3.69995 9.37245 3.90921 9.82347 4.32772C10.2745 4.74623 10.5 5.25238 10.5 5.84616C10.5 6.18956 10.4207 6.50612 10.2622 6.79586C10.1036 7.0856 9.79352 7.43793 9.33192 7.85287C9.02185 8.13188 8.81924 8.33755 8.7241 8.4699C8.62896 8.60225 8.55849 8.75428 8.51269 8.92597C8.46688 9.09767 8.44045 9.37668 8.4334 9.763H7.51903ZM7.46089 11.7V10.6H8.5444V11.7H7.46089Z" fill="white"/>
</svg>
