<svg width="189" height="14" viewBox="0 0 189 14" fill="none" xmlns="http://www.w3.org/2000/svg">
<path d="M12.8905 11.0521C12.9272 11.8441 13.1933 12.6091 13.6612 13.2481H10.6152C10.9271 12.5911 11.0189 11.8531 10.8721 11.1421L10.1748 4.78796L7.07374 13.2481H5.66999L2.54141 4.67095L1.83495 11.1421C1.68816 11.8531 1.7799 12.5911 2.09184 13.2481H0C0.467913 12.6001 0.733977 11.8441 0.770676 11.0521L1.49549 4.98596C1.66064 4.28395 1.61476 3.53695 1.34869 2.86194H3.90844L6.84437 10.8631L9.06466 4.71597C9.34908 4.13996 9.42247 3.48295 9.25733 2.86194H12.3125C12.0465 3.53695 11.9914 4.27495 12.1657 4.98596L12.8905 11.0521Z" fill="white"/>
<path d="M24.5978 13.2483C24.7263 12.5283 24.6162 11.7903 24.2767 11.1423L23.9923 10.4492H19.093L18.8361 11.1062C18.515 11.7813 18.4232 12.5283 18.5792 13.2573H16.2305C16.9278 12.6453 17.4507 11.8623 17.7443 10.9893L21.0472 2.87109H22.8822L26.286 11.0613C26.5704 11.8803 27.0475 12.6363 27.6622 13.2573L24.5978 13.2483ZM23.5703 9.40523L21.5151 4.32912L19.5059 9.40523H23.5703Z" fill="white"/>
<path d="M35.2766 2.86204C37.7997 2.86204 39.1667 4.16705 39.1667 5.63408C39.1667 7.50611 37.0015 8.58613 34.4601 8.69413C35.1207 9.14414 35.7354 9.63916 36.3042 10.1972C37.0015 10.9262 37.9557 11.3672 38.9649 11.4302C39.3778 11.4302 39.7906 11.3402 40.176 11.1782L40.0842 13.2122C39.708 13.3832 39.2952 13.4642 38.8731 13.4642C37.1942 13.4642 35.9556 11.9972 35.3042 11.1152C34.4142 9.94516 33.8178 8.81114 33.3041 8.81114H33.1206V11.1242C33.0563 11.8622 33.2215 12.6092 33.6068 13.2482H30.6709C31.0562 12.6092 31.2214 11.8622 31.1572 11.1242V4.97705C31.2214 4.23904 31.0562 3.49204 30.6709 2.85303L35.2766 2.86204ZM33.9646 7.95611C36.0565 7.95611 37.0841 7.06511 37.0841 5.89509C37.0841 4.77007 36.1574 3.83404 34.3316 3.83404H33.1389V7.95611H33.9646Z" fill="white"/>
<path d="M43.9658 13.2482C44.3512 12.6092 44.5163 11.8622 44.4521 11.1242V4.97705C44.5163 4.23904 44.3512 3.49204 43.9658 2.85303H46.9017C46.5164 3.49204 46.3512 4.23904 46.4155 4.97705V11.1242C46.3512 11.8622 46.5164 12.6092 46.9017 13.2482H43.9658Z" fill="white"/>
<path d="M62.2598 8.05544C62.3882 11.2145 59.8835 13.8696 56.6724 13.9956C53.452 14.1216 50.7455 11.6645 50.617 8.51445C50.4886 5.35539 52.9933 2.70034 56.2045 2.57434C56.287 2.57434 56.3696 2.56533 56.4522 2.56533C59.4615 2.37632 62.058 4.61736 62.2506 7.56942C62.2598 7.73142 62.2598 7.89343 62.2598 8.05544ZM56.4522 12.5105C58.388 12.5105 60.1129 10.9985 60.1129 8.04643C60.1129 5.10337 58.388 3.60935 56.4522 3.60935C54.4979 3.60935 52.7639 5.12137 52.7639 8.04643C52.7547 10.9805 54.4979 12.5105 56.4522 12.5105Z" fill="white"/>
<path d="M81.8027 11.1332C81.7384 11.8712 81.9036 12.6182 82.2889 13.2572H79.353C79.7383 12.6182 79.9035 11.8712 79.8393 11.1332V8.50516H73.9399V11.1332C73.8757 11.8712 74.0408 12.6182 74.4261 13.2572H71.4902C71.8756 12.6182 72.0407 11.8712 71.9765 11.1332V4.98609C72.0407 4.24807 71.8756 3.50107 71.4902 2.86206H74.4261C74.0408 3.50107 73.8757 4.24807 73.9399 4.98609V7.46113H79.8393V4.98609C79.9035 4.24807 79.7383 3.50107 79.353 2.86206H82.2889C81.9036 3.50107 81.7384 4.24807 81.8027 4.98609V11.1332Z" fill="white"/>
<path d="M94.4174 11.5743V13.2483H86.3712C86.7565 12.6093 86.9216 11.8623 86.8574 11.1242V4.97712C86.9216 4.2391 86.7565 3.4921 86.3712 2.85309H94.1788V4.36511C93.5274 3.9871 92.7659 3.8251 92.0136 3.8881H88.8483V7.50616H91.3438C92.0962 7.56916 92.8577 7.40716 93.5091 7.02915V8.94619C92.8577 8.56819 92.0962 8.40619 91.3438 8.46919H88.8483V12.1953H91.4815C92.4999 12.3033 93.5274 12.0783 94.4174 11.5743Z" fill="white"/>
<path d="M102.876 2.86204C105.399 2.86204 106.766 4.16705 106.766 5.63408C106.766 7.50611 104.601 8.58613 102.06 8.69413C102.72 9.14414 103.335 9.63916 103.904 10.1972C104.601 10.9262 105.555 11.3672 106.565 11.4302C106.977 11.4302 107.39 11.3402 107.776 11.1782L107.684 13.2122C107.308 13.3832 106.895 13.4642 106.473 13.4642C104.794 13.4642 103.555 11.9972 102.904 11.1152C102.014 9.94516 101.417 8.81114 100.904 8.81114H100.72V11.1242C100.656 11.8622 100.821 12.6092 101.206 13.2482H98.2705C98.6558 12.6092 98.821 11.8622 98.7568 11.1242V4.97705C98.821 4.23904 98.6558 3.49204 98.2705 2.85303L102.876 2.86204ZM101.555 7.95611C103.647 7.95611 104.675 7.06511 104.675 5.89509C104.675 4.77007 103.748 3.83404 101.922 3.83404H100.729V7.95611H101.555Z" fill="white"/>
<path d="M120.896 11.1333C120.832 11.8713 120.997 12.6183 121.382 13.2573H119.263L112.575 4.99515V11.1423C112.51 11.8803 112.676 12.6273 113.061 13.2663H111.033C111.419 12.6273 111.584 11.8803 111.519 11.1423V4.99515C111.584 4.25713 111.419 3.51011 111.033 2.87109H113.318L119.841 10.8993V4.99515C119.905 4.25713 119.74 3.51011 119.355 2.87109H121.382C120.997 3.51011 120.832 4.25713 120.896 4.99515V11.1333Z" fill="white"/>
<path d="M132.988 13.2573C133.117 12.5372 133.007 11.7992 132.667 11.1512L132.383 10.4582H127.484L127.227 11.1152C126.906 11.7902 126.814 12.5373 126.97 13.2663H124.621C125.318 12.6543 125.841 11.8712 126.135 10.9982L130.603 0H133.777L130.025 2.88007H131.264L134.667 11.0702C134.952 11.8892 135.429 12.6453 136.044 13.2663L132.988 13.2573ZM131.933 9.3332L129.906 4.32908L127.924 9.3332H131.933Z" fill="white"/>
<path d="M149.164 11.1333C149.099 11.8713 149.265 12.6183 149.65 13.2573H147.531L140.842 4.99515V11.1423C140.778 11.8803 140.943 12.6273 141.328 13.2663H139.301C139.686 12.6273 139.851 11.8803 139.787 11.1423V4.99515C139.851 4.25713 139.686 3.51011 139.301 2.87109H141.585L148.109 10.8993V4.99515C148.173 4.25713 148.008 3.51011 147.622 2.87109H149.65C149.265 3.51011 149.099 4.25713 149.164 4.99515V11.1333Z" fill="white"/>
<path d="M153.889 2.86214H158.293C161.164 2.70914 163.623 4.86917 163.779 7.68622C163.788 7.80322 163.788 7.91123 163.788 8.02823C163.816 10.8813 161.485 13.2213 158.568 13.2483C158.476 13.2483 158.384 13.2483 158.293 13.2483H153.889C154.274 12.6093 154.439 11.8623 154.375 11.1243V4.97716C154.439 4.23915 154.265 3.50116 153.889 2.86214ZM157.65 12.2853C160.449 12.2853 161.632 9.93626 161.632 8.05523C161.632 6.15619 160.449 3.82514 157.65 3.82514H156.329V12.2853H157.65Z" fill="white"/>
<path d="M175.917 11.5742V13.2482H167.871C168.256 12.6092 168.422 11.8622 168.357 11.1242V4.97705C168.422 4.23904 168.256 3.49204 167.871 2.85303H175.679V4.36505C175.027 3.98704 174.266 3.82504 173.514 3.88804H170.348V7.5061H172.844C173.596 7.5691 174.358 7.4071 175.009 7.02909V8.94613C174.358 8.56813 173.596 8.40612 172.844 8.46913H170.348V12.1952H172.981C174 12.3032 175.027 12.0782 175.917 11.5742Z" fill="white"/>
<path d="M189 11.4572V13.2572H179.926L185.963 3.90606H183.843C182.632 3.79805 181.421 4.05908 180.375 4.66209V2.86206H188.926L182.953 12.2132H185.541C186.743 12.3212 187.954 12.0602 189 11.4572Z" fill="white"/>
</svg>
