<svg width="60" height="60" viewBox="0 0 60 60" fill="none" xmlns="http://www.w3.org/2000/svg">
<rect x="0.5" y="0.5" width="59" height="59" rx="29.5" stroke="url(#paint0_linear_23_34)"/>
<path fill-rule="evenodd" clip-rule="evenodd" d="M21.3965 25.888C21.3965 23.162 23.0615 21.395 25.6385 21.395H34.3545C36.9405 21.395 38.6055 23.162 38.6055 25.888V31.19C38.1595 30.812 36.8125 29.871 36.6245 29.759C35.2245 28.919 33.5445 29.299 32.4545 30.719C32.3595 30.844 30.7825 33.144 30.2245 33.488C30.0955 33.568 29.9595 33.611 29.8145 33.631C29.4645 33.661 29.1275 33.481 28.5545 33.098C28.2245 32.888 27.8645 32.649 27.4545 32.479C25.7495 31.766 24.4505 32.944 23.7585 33.734C23.7495 33.742 21.8125 36.104 21.7815 36.141C21.5385 35.55 21.3965 34.867 21.3965 34.102V25.888ZM40 25.888C40 22.362 37.731 20 34.354 20H25.638C22.271 20 20 22.362 20 25.888V34.102C20 35.674 20.447 37.013 21.238 38.009C21.247 38.018 21.247 38.028 21.256 38.028C22.043 39.013 23.166 39.666 24.519 39.899C24.531 39.901 24.543 39.903 24.556 39.905C24.903 39.962 25.262 40 25.638 40H34.354C34.535 40 34.7 39.966 34.874 39.953C35.078 39.936 35.289 39.932 35.483 39.898C35.74 39.854 35.976 39.777 36.215 39.703C36.319 39.67 36.43 39.65 36.53 39.612C36.773 39.52 36.996 39.401 37.217 39.279C37.297 39.235 37.383 39.199 37.461 39.15C37.678 39.014 37.875 38.855 38.068 38.689C38.132 38.634 38.201 38.584 38.262 38.526C38.45 38.347 38.616 38.15 38.775 37.944C38.824 37.879 38.876 37.819 38.923 37.752C39.076 37.534 39.208 37.299 39.33 37.054C39.364 36.983 39.4 36.914 39.433 36.842C39.546 36.585 39.64 36.316 39.72 36.034C39.741 35.958 39.762 35.883 39.78 35.805C39.851 35.514 39.902 35.214 39.935 34.9C39.939 34.862 39.95 34.827 39.954 34.789C39.961 34.704 39.96 34.619 39.965 34.534C39.973 34.388 40 34.253 40 34.102V25.888Z" fill="url(#paint1_linear_23_34)"/>
<path d="M26.5048 28.9995C27.8663 28.9995 29 27.8694 29 26.5145C29 25.8351 28.7151 25.2126 28.2607 24.7609C27.8081 24.2929 27.1764 23.9995 26.4787 23.9995C25.1085 23.9995 24 25.1035 24 26.4681C24 26.6486 24.0213 26.8233 24.0591 26.9931C24.2878 28.1252 25.3081 28.9995 26.5048 28.9995" fill="url(#paint2_linear_23_34)"/>
<defs>
<linearGradient id="paint0_linear_23_34" x1="52.5" y1="-2.55927e-06" x2="8" y2="60" gradientUnits="userSpaceOnUse">
<stop stop-color="#B7812C"/>
<stop offset="1" stop-color="white"/>
</linearGradient>
<linearGradient id="paint1_linear_23_34" x1="37.5" y1="20" x2="22.6667" y2="40" gradientUnits="userSpaceOnUse">
<stop stop-color="#B7812C"/>
<stop offset="1" stop-color="#7ECEFF"/>
</linearGradient>
<linearGradient id="paint2_linear_23_34" x1="28.375" y1="23.9995" x2="24.6667" y2="28.9995" gradientUnits="userSpaceOnUse">
<stop stop-color="#B7812C"/>
<stop offset="1" stop-color="#7ECEFF"/>
</linearGradient>
</defs>
</svg>
