<svg width="241" height="21" viewBox="0 0 241 21" fill="none" xmlns="http://www.w3.org/2000/svg">
<path d="M6.04672 20.7428V11.7778H8.79069L9.19977 8.27931H6.04672V6.04895C6.04672 5.04312 6.30616 4.35429 7.62327 4.35429H9.30957V1.22761C8.49137 1.12922 7.67313 1.08536 6.84495 1.09629C4.7296 0.932296 2.89364 2.6707 2.73399 4.98848C2.71403 5.22901 2.72402 5.46944 2.74397 5.70996V8.29025H0V11.7887H2.75396V20.7537H6.04672V20.7428Z" fill="white"/>
<path d="M66.3036 19.9337H59.7979C56.9142 19.9337 54.5693 17.3645 54.5693 14.2048V7.92935C54.5693 4.76972 56.9142 2.20049 59.7979 2.20049H66.3036C69.1972 2.20049 71.5321 4.76972 71.5421 7.92935V14.2048C71.5321 17.3645 69.1972 19.9337 66.3036 19.9337ZM59.7979 3.46875C57.5528 3.46875 55.7268 5.46943 55.7268 7.92935V14.2048C55.7268 16.6648 57.5528 18.6654 59.7979 18.6654H66.3036C68.5486 18.6654 70.3746 16.6648 70.3746 14.2048V7.92935C70.3746 5.46943 68.5486 3.46875 66.3036 3.46875H59.7979Z" fill="white"/>
<path d="M63.0553 16.1684C60.4809 16.1684 58.3955 13.8835 58.3955 11.0628C58.3955 8.24211 60.4809 5.95708 63.0553 5.95708C65.6296 5.95708 67.715 8.24211 67.715 11.0628C67.715 13.8835 65.6296 16.1684 63.0553 16.1684ZM63.0553 7.23628C61.1295 7.23628 59.5629 8.95275 59.5629 11.0628C59.5629 13.1729 61.1295 14.8893 63.0553 14.8893C64.981 14.8893 66.5476 13.1729 66.5476 11.0628C66.5376 8.94182 64.981 7.23628 63.0553 7.23628Z" fill="white"/>
<path d="M68.6106 6.11671C68.6106 6.70709 68.1815 7.17717 67.6427 7.17717C67.1039 7.17717 66.6748 6.69615 66.6748 6.11671C66.6748 5.53726 67.1039 5.05624 67.6427 5.05624C68.1715 5.05624 68.6106 5.52633 68.6106 6.11671Z" fill="white"/>
<path d="M182.881 4.44197C182.651 4.50756 182.422 4.55126 182.182 4.54032L182.192 4.46372C182.751 3.98267 183.23 3.39232 183.589 2.71447C183.639 2.51768 183.579 2.45208 183.579 2.44115L182.412 2.9878L181.434 3.46892C180.685 2.63801 179.658 2.16785 178.6 2.18971C176.704 2.05852 175.058 3.63283 174.918 5.71009C174.918 6.15834 174.968 6.60668 175.068 7.03307C175.068 7.13146 175.068 6.93467 175.068 7.03307C173.501 6.89094 171.974 6.39887 170.588 5.5789C167.644 3.94989 167.454 2.81283 167.454 2.81283C166.876 3.94986 166.796 5.3165 167.225 6.53006C167.534 7.2079 167.993 7.7874 168.552 8.22472C168.233 8.22472 167.913 8.15909 167.604 8.04976C167.365 7.97323 167.135 7.85301 166.936 7.68902C166.646 8.45432 167.225 9.83186 168.223 10.8158C168.712 11.2313 169.27 11.5483 169.869 11.7451L168.213 11.7998C168.123 13.56 171.595 14.6095 171.595 14.6095C170.607 15.4732 169.39 15.9652 168.133 15.9871C167.494 15.9871 166.856 15.8887 166.247 15.6809C167.953 17.299 170.149 18.1628 172.404 18.0972C178.6 17.7364 182.102 11.8982 182.272 6.16932L182.282 6.18027C182.621 5.95067 182.93 5.6664 183.19 5.33841C183.579 4.90109 183.918 4.3982 184.198 3.86249C184.198 3.88435 183.27 4.33264 182.881 4.44197Z" fill="white"/>
<path d="M183.579 2.44099C183.589 2.54857 183.579 2.45175 183.579 2.44099V2.44099Z" fill="white"/>
<path d="M125.215 5.69898C124.706 1.65379 121.024 -0.412429 117.093 0.0686205C113.69 0.418475 111.016 3.40314 110.757 7.1422C110.677 9.54745 111.296 11.3513 113.381 11.8542C114.289 10.105 113.092 9.72232 112.902 8.4541C112.134 3.26095 118.36 -0.270301 121.623 3.3485C123.878 5.86308 122.391 13.5817 118.759 12.7727C115.277 12.0074 120.465 5.86303 117.681 4.6604C115.426 3.67644 114.219 7.65608 115.287 9.63495C114.658 13.0351 113.301 16.2384 113.85 20.5022C115.626 19.0919 116.225 16.3805 116.724 13.5598C117.432 14.2486 118.3 14.6968 119.228 14.8717C123.449 15.2216 125.794 10.269 125.215 5.69898Z" fill="white"/>
<path d="M236.301 3.28284H225.814C223.758 3.28284 222.082 5.10863 222.082 7.37175V13.1225C222.082 15.3747 223.748 17.2114 225.814 17.2114H236.301C238.356 17.2114 240.033 15.3856 240.033 13.1225V7.37175C240.033 5.10863 238.366 3.28284 236.301 3.28284ZM233.786 10.5206L228.877 13.0897C228.777 13.1443 228.658 13.0898 228.608 12.9805C228.598 12.9477 228.588 12.9257 228.588 12.8929V7.6013C228.588 7.48103 228.678 7.3827 228.797 7.39363C228.827 7.39363 228.857 7.40459 228.877 7.41552L233.786 10.1378C233.886 10.1925 233.916 10.3237 233.866 10.433C233.846 10.4658 233.816 10.4987 233.786 10.5206Z" fill="white"/>
</svg>
