<svg width="60" height="60" viewBox="0 0 60 60" fill="none" xmlns="http://www.w3.org/2000/svg">
<rect x="0.5" y="0.5" width="59" height="59" rx="29.5" stroke="url(#paint0_linear_23_28)"/>
<path d="M25.104 18H21.048C19.368 18 18 19.38 18 21.0732V25.164C18 26.868 19.368 28.2359 21.048 28.2359H25.104C26.796 28.2359 28.1519 26.868 28.1519 25.164V21.0732C28.1519 19.38 26.796 18 25.104 18" fill="url(#paint1_linear_23_28)"/>
<path d="M25.104 31.7637H21.048C19.368 31.7637 18 33.1329 18 34.8369V38.9276C18 40.6196 19.368 41.9996 21.048 41.9996H25.104C26.796 41.9996 28.1519 40.6196 28.1519 38.9276V34.8369C28.1519 33.1329 26.796 31.7637 25.104 31.7637" fill="url(#paint2_linear_23_28)"/>
<path d="M38.9516 18H34.8956C33.2036 18 31.8477 19.38 31.8477 21.0732V25.164C31.8477 26.868 33.2036 28.2359 34.8956 28.2359H38.9516C40.6316 28.2359 41.9996 26.868 41.9996 25.164V21.0732C41.9996 19.38 40.6316 18 38.9516 18" fill="url(#paint3_linear_23_28)"/>
<path d="M38.9516 31.7637H34.8956C33.2036 31.7637 31.8477 33.1329 31.8477 34.8369V38.9276C31.8477 40.6196 33.2036 41.9996 34.8956 41.9996H38.9516C40.6316 41.9996 41.9996 40.6196 41.9996 38.9276V34.8369C41.9996 33.1329 40.6316 31.7637 38.9516 31.7637" fill="url(#paint4_linear_23_28)"/>
<defs>
<linearGradient id="paint0_linear_23_28" x1="52.5" y1="-2.55927e-06" x2="8" y2="60" gradientUnits="userSpaceOnUse">
<stop stop-color="#B7812C"/>
<stop offset="1" stop-color="white"/>
</linearGradient>
<linearGradient id="paint1_linear_23_28" x1="26.883" y1="18" x2="19.2734" y2="28.1759" gradientUnits="userSpaceOnUse">
<stop stop-color="#B7812C"/>
<stop offset="1" stop-color="#7ECEFF"/>
</linearGradient>
<linearGradient id="paint2_linear_23_28" x1="26.883" y1="31.7637" x2="19.2734" y2="41.9396" gradientUnits="userSpaceOnUse">
<stop stop-color="#B7812C"/>
<stop offset="1" stop-color="#7ECEFF"/>
</linearGradient>
<linearGradient id="paint3_linear_23_28" x1="40.7306" y1="18" x2="33.121" y2="28.1759" gradientUnits="userSpaceOnUse">
<stop stop-color="#B7812C"/>
<stop offset="1" stop-color="#7ECEFF"/>
</linearGradient>
<linearGradient id="paint4_linear_23_28" x1="40.7306" y1="31.7637" x2="33.121" y2="41.9396" gradientUnits="userSpaceOnUse">
<stop stop-color="#B7812C"/>
<stop offset="1" stop-color="#7ECEFF"/>
</linearGradient>
</defs>
</svg>
