<svg width="17" height="18" viewBox="0 0 17 18" fill="none" xmlns="http://www.w3.org/2000/svg">
<path d="M8.7209 12.4636C13.0247 12.4636 15.5258 15.118 15.5258 17.8H16.8C16.8 14.4728 13.9025 11.2286 8.75865 11.2286C2.89753 11.7908 0 14.4452 0 17.8H1.26472C1.26472 15.0811 3.90742 12.4636 8.7209 12.4636Z" fill="white"/>
<path d="M8.10755 10.3174C11.6562 9.89346 13.3928 7.52482 13.3928 5.08245C13.5344 2.5387 11.543 0.354389 8.92865 0.206925C8.77765 0.197708 8.62664 0.197708 8.46619 0.206925C4.95525 0.667749 3.18091 2.92579 3.18091 5.36816C3.04878 7.958 5.07795 10.17 7.73946 10.3082C7.86216 10.3174 7.98485 10.3174 8.10755 10.3174ZM8.43788 1.34055C10.4859 1.29447 12.1942 2.87971 12.2414 4.8889C12.2414 4.96264 12.2414 5.04559 12.2414 5.11932C12.2791 7.32206 10.4765 9.13771 8.2208 9.18379C8.19249 9.18379 8.16418 9.18379 8.1453 9.18379C6.0595 9.20223 4.36066 7.56169 4.34178 5.52484C4.34178 5.46033 4.34178 5.39581 4.34178 5.3313C4.30403 3.1562 6.08781 1.3682 8.31518 1.34055C8.35294 1.33134 8.39069 1.33134 8.43788 1.34055Z" fill="white"/>
</svg>
